<svg width="160" height="64" viewBox="0 0 160 64" fill="none" xmlns="http://www.w3.org/2000/svg">
  <!-- Left Dolphin -->
  <path d="M10 40 Q16 24 30 20 Q40 18 50 24 Q60 30 70 32 Q64 36 56 40 Q44 44 30 44 Q16 44 10 40 Z" fill="black"/>
  <!-- Left Dolphin eye -->
  <circle cx="24" cy="30" r="2" fill="white"/>
  <!-- Left Dolphin fin -->
  <path d="M16 36 Q20 34 24 36" stroke="white" stroke-width="1" fill="none"/>
  
  <!-- Right Dolphin (mirrored) -->
  <path d="M150 40 Q144 24 130 20 Q120 18 110 24 Q100 30 90 32 Q96 36 104 40 Q116 44 130 44 Q144 44 150 40 Z" fill="black"/>
  <!-- Right Dolphin eye -->
  <circle cx="136" cy="30" r="2" fill="white"/>
  <!-- Right Dolphin fin -->
  <path d="M144 36 Q140 34 136 36" stroke="white" stroke-width="1" fill="none"/>
  
  <!-- Submarine hull -->
  <ellipse cx="80" cy="32" rx="24" ry="6" fill="black"/>
  <!-- Conning tower -->
  <rect x="74" y="20" width="12" height="16" rx="2" fill="black"/>
  <!-- Periscope -->
  <line x1="80" y1="20" x2="80" y2="12" stroke="black" stroke-width="1.6"/>
  <!-- Propeller -->
  <g transform="translate(104, 32)">
    <circle r="3" fill="black"/>
    <path d="M-3 0 L3 0 M0 -3 L0 3" stroke="white" stroke-width="0.6"/>
  </g>
  <!-- Bow -->
  <path d="M56 32 Q50 28 50 32 Q50 36 56 32" fill="black"/>
</svg>